# xmcd
#
# Track frame offsets: 
#        150
#        13856
#        33722
#        51838
#        66935
#        81500
#        99782
#        120404
#        135036
#        156446
#        176078
#        195868
#        208753
#        223540
#
# Disc length: 3148 seconds
#
# Revision: 0
# Processed by: cddbd v1.5.2PL0 Copyright (c) Steve Scherf et al.
# Submitted via: ExactAudioCopy v0.99pb4
#
DISCID=be0c4a0e
DTITLE=Trole - Trole
DYEAR=2007
DGENRE=Blues
TTITLE0=Courtin Time
TTITLE1=Taste My Blood
TTITLE2=Drug Money
TTITLE3=Lonestar Fool
TTITLE4=We The People
TTITLE5=Good Enough
TTITLE6=Addicted
TTITLE7=Walkinsong
TTITLE8=Nosey Neighbours
TTITLE9=Love On The Killing Floor
TTITLE10=Dirty Betty
TTITLE11=Chicken Stew Stomp
TTITLE12=Poor Mans River
TTITLE13=Murdered
EXTD=
EXTT0=
EXTT1=
EXTT2=
EXTT3=
EXTT4=
EXTT5=
EXTT6=
EXTT7=
EXTT8=
EXTT9=
EXTT10=
EXTT11=
EXTT12=
EXTT13=
PLAYORDER=
